<svg xmlns="http://www.w3.org/2000/svg" width="766" height="766" viewBox="0 0 766 766"><path d="M190.348,0h0.023a98.348,98.348,0,0,1,98.348,98.348V435.371a98.348,98.348,0,0,1-98.348,98.348h-0.023A98.348,98.348,0,0,1,92,435.371V98.348A98.348,98.348,0,0,1,190.348,0ZM673.935,98.958v396.03s6.337,128.629-125.095,221.754S257.053,752.57,192.081,694.725c0,0,114.151,11.026,214.746-86.21C445.786,569.582,471.9,516.7,476.9,494.988s3.717-33.695,3.717-33.695L480.09,98.958c0-98.171,96.888-98.171,96.888-98.171S673.935,1.1,673.935,98.958Z"/></svg>